<svg id="visual" viewBox="0 0 960 540" width="960" height="540" xmlns="http://www.w3.org/2000/svg" xmlns:xlink="http://www.w3.org/1999/xlink" version="1.1"><path d="M844 540L834 517L834 493L853 470L834 446L844 423L873 399L853 376L834 352L873 329L844 305L844 282L863 258L853 235L853 211L853 188L844 164L844 141L882 117L873 94L863 70L844 47L863 23L825 0L960 0L960 23L960 47L960 70L960 94L960 117L960 141L960 164L960 188L960 211L960 235L960 258L960 282L960 305L960 329L960 352L960 376L960 399L960 423L960 446L960 470L960 493L960 517L960 540Z" fill="#00cc8e"></path><path d="M805 540L777 517L786 493L777 470L767 446L786 423L825 399L796 376L786 352L805 329L777 305L777 282L786 258L805 235L786 211L777 188L786 164L767 141L796 117L815 94L786 70L777 47L805 23L767 0L826 0L864 23L845 47L864 70L874 94L883 117L845 141L845 164L854 188L854 211L854 235L864 258L845 282L845 305L874 329L835 352L854 376L874 399L845 423L835 446L854 470L835 493L835 517L845 540Z" fill="#00c58d"></path><path d="M738 540L738 517L738 493L729 470L700 446L748 423L786 399L748 376L729 352L738 329L709 305L738 282L719 258L738 235L719 211L738 188L729 164L700 141L757 117L757 94L748 70L709 47L767 23L709 0L768 0L806 23L778 47L787 70L816 94L797 117L768 141L787 164L778 188L787 211L806 235L787 258L778 282L778 305L806 329L787 352L797 376L826 399L787 423L768 446L778 470L787 493L778 517L806 540Z" fill="#00bf8b"></path><path d="M709 540L700 517L700 493L681 470L652 446L719 423L757 399L709 376L690 352L700 329L681 305L690 282L690 258L700 235L671 211L709 188L681 164L652 141L709 117L709 94L709 70L661 47L738 23L681 0L710 0L768 23L710 47L749 70L758 94L758 117L701 141L730 164L739 188L720 211L739 235L720 258L739 282L710 305L739 329L730 352L749 376L787 399L749 423L701 446L730 470L739 493L739 517L739 540Z" fill="#00b889"></path><path d="M652 540L642 517L661 493L652 470L613 446L681 423L709 399L681 376L642 352L661 329L633 305L652 282L633 258L642 235L613 211L671 188L623 164L623 141L681 117L652 94L671 70L633 47L690 23L633 0L682 0L739 23L662 47L710 70L710 94L710 117L653 141L682 164L710 188L672 211L701 235L691 258L691 282L682 305L701 329L691 352L710 376L758 399L720 423L653 446L682 470L701 493L701 517L710 540Z" fill="#00b187"></path><path d="M623 540L613 517L633 493L623 470L575 446L652 423L671 399L652 376L613 352L623 329L594 305L623 282L594 258L604 235L585 211L642 188L594 164L594 141L652 117L623 94L633 70L604 47L652 23L594 0L634 0L691 23L634 47L672 70L653 94L682 117L624 141L624 164L672 188L614 211L643 235L634 258L653 282L634 305L662 329L643 352L682 376L710 399L682 423L614 446L653 470L662 493L643 517L653 540Z" fill="#00aa85"></path><path d="M527 540L508 517L546 493L527 470L498 446L575 423L556 399L575 376L508 352L537 329L489 305L527 282L508 258L498 235L527 211L537 188L527 164L517 141L585 117L537 94L565 70L517 47L565 23L527 0L595 0L653 23L605 47L634 70L624 94L653 117L595 141L595 164L643 188L586 211L605 235L595 258L624 282L595 305L624 329L614 352L653 376L672 399L653 423L576 446L624 470L634 493L614 517L624 540Z" fill="#00a483"></path><path d="M489 540L479 517L498 493L479 470L469 446L546 423L517 399L527 376L479 352L498 329L441 305L479 282L460 258L450 235L498 211L489 188L498 164L489 141L556 117L489 94L527 70L479 47L527 23L498 0L528 0L566 23L518 47L566 70L538 94L586 117L518 141L528 164L538 188L528 211L499 235L509 258L528 282L490 305L538 329L509 352L576 376L557 399L576 423L499 446L528 470L547 493L509 517L528 540Z" fill="#009d80"></path><path d="M277 540L287 517L335 493L277 470L297 446L287 423L345 399L345 376L325 352L297 329L306 305L316 282L258 258L258 235L306 211L258 188L249 164L325 141L354 117L268 94L364 70L229 47L268 23L297 0L499 0L528 23L480 47L528 70L490 94L557 117L490 141L499 164L490 188L499 211L451 235L461 258L480 282L442 305L499 329L480 352L528 376L518 399L547 423L470 446L480 470L499 493L480 517L490 540Z" fill="#00977d"></path><path d="M105 540L114 517L143 493L105 470L85 446L124 423L95 399L124 376L114 352L124 329L124 305L114 282L85 258L105 235L124 211L105 188L124 164L95 141L143 117L133 94L133 70L95 47L114 23L105 0L298 0L269 23L230 47L365 70L269 94L355 117L326 141L250 164L259 188L307 211L259 235L259 258L317 282L307 305L298 329L326 352L346 376L346 399L288 423L298 446L278 470L336 493L288 517L278 540Z" fill="#00907a"></path><path d="M57 540L47 517L47 493L57 470L37 446L57 423L37 399L57 376L47 352L47 329L57 305L57 282L37 258L37 235L47 211L57 188L47 164L47 141L47 117L47 94L57 70L37 47L37 23L57 0L106 0L115 23L96 47L134 70L134 94L144 117L96 141L125 164L106 188L125 211L106 235L86 258L115 282L125 305L125 329L115 352L125 376L96 399L125 423L86 446L106 470L144 493L115 517L106 540Z" fill="#008977"></path><path d="M0 540L0 517L0 493L0 470L0 446L0 423L0 399L0 376L0 352L0 329L0 305L0 282L0 258L0 235L0 211L0 188L0 164L0 141L0 117L0 94L0 70L0 47L0 23L0 0L58 0L38 23L38 47L58 70L48 94L48 117L48 141L48 164L58 188L48 211L38 235L38 258L58 282L58 305L48 329L48 352L58 376L38 399L58 423L38 446L58 470L48 493L48 517L58 540Z" fill="#038373"></path></svg>